<svg width="18.16" height="10.368" viewBox="0 0 18.16 10.368" xmlns="http://www.w3.org/2000/svg"><g id="svgGroup" stroke-linecap="round" fill-rule="evenodd" font-size="9pt" stroke="#000" stroke-width="0.25mm" fill="#000" style="stroke:#000;stroke-width:0.25mm;fill:#000"><path d="M 13.296 10.368 L 9.264 10.368 L 9.264 9.664 L 10.592 9.424 L 10.592 0.944 L 9.264 0.704 L 9.264 0 L 13.296 0 L 13.296 0.704 L 11.968 0.944 L 11.968 4.624 L 12.544 4.624 L 15.392 1.056 L 15.392 0.88 L 14.496 0.688 L 14.496 0 L 17.776 0 L 17.776 0.704 L 16.816 0.896 L 13.68 4.704 L 16.944 9.392 L 18.16 9.648 L 18.16 10.368 L 16.656 10.368 A 2.963 2.963 0 0 1 16.455 10.362 Q 16.262 10.349 16.135 10.308 A 0.674 0.674 0 0 1 16.08 10.288 Q 15.888 10.208 15.68 9.904 L 12.592 5.376 L 11.968 5.376 L 11.968 9.424 L 13.296 9.664 L 13.296 10.368 Z M 7.824 10.368 L 0 10.368 L 0 9.616 L 6.016 1.024 L 6.016 0.912 L 1.408 0.912 L 0.944 2.56 L 0.16 2.56 L 0.16 0 L 7.744 0 L 7.744 0.752 L 1.76 9.344 L 1.76 9.456 L 6.576 9.456 L 7.04 7.808 L 7.824 7.808 L 7.824 10.368 Z" vector-effect="non-scaling-stroke"/></g></svg>